<?xml version="1.0" encoding="iso-8859-1"?>
<!-- Uploaded to: SVG Repo, www.svgrepo.com, Generator: SVG Repo Mixer Tools -->
<svg fill="currentColor" height="800px" width="800px" version="1.1" id="Layer_1" xmlns="http://www.w3.org/2000/svg" xmlns:xlink="http://www.w3.org/1999/xlink"
	 viewBox="0 0 511.983 511.983" xml:space="preserve">
<g>
	<g>
		<g>
			<path d="M145.058,302.925c-7.057,0-12.8,5.743-12.8,12.8s5.743,12.8,12.8,12.8s12.8-5.743,12.8-12.8
				S152.115,302.925,145.058,302.925z"/>
			<path d="M89.591,258.125c-7.057,0-12.8,5.743-12.8,12.8s5.743,12.8,12.8,12.8c7.057,0,12.8-5.743,12.8-12.8
				S96.648,258.125,89.591,258.125z"/>
			<path d="M132.258,230.391c0,7.057,5.743,12.8,12.8,12.8s12.8-5.743,12.8-12.8s-5.743-12.8-12.8-12.8
				S132.258,223.334,132.258,230.391z"/>
			<path d="M200.525,258.125c-7.057,0-12.8,5.743-12.8,12.8s5.743,12.8,12.8,12.8s12.8-5.743,12.8-12.8
				S207.582,258.125,200.525,258.125z"/>
			<path d="M255.991,311.458c-14.114,0-25.6,11.486-25.6,25.6c0,14.114,11.486,25.6,25.6,25.6s25.6-11.486,25.6-25.6
				C281.591,322.944,270.105,311.458,255.991,311.458z"/>
			<path d="M510.558,399.198l-26.479-136.141c-10.88-56.013-60.203-96.666-117.265-96.666H356.71
				c-11.759,0-23.142,3.447-32.922,9.967c-6.972,4.642-15.078,7.1-23.45,7.1h-35.814V89.591c0-14.114,11.486-25.6,25.6-25.6
				s25.6,11.486,25.6,25.6v25.6c0,18.825,15.309,34.133,34.133,34.133c18.825,0,34.133-15.309,34.133-34.133v-25.6h8.533
				c4.719,0,8.533-3.823,8.533-8.533v-51.2c0-4.71-3.814-8.533-8.533-8.533h-34.133c-4.719,0-8.533,3.823-8.533,8.533v51.2
				c0,4.71,3.814,8.533,8.533,8.533h8.533v25.6c0,9.412-7.654,17.067-17.067,17.067c-9.412,0-17.067-7.654-17.067-17.067v-25.6
				c0-23.526-19.14-42.667-42.667-42.667c-23.526,0-42.667,19.14-42.667,42.658v93.875h-34.133v-22.656
				c0-15.744-12.8-28.544-28.544-28.544h-62.379c-15.744,0-28.544,12.8-28.544,28.544v17.254
				c-33.331,15.923-58.556,46.891-65.954,85.001L1.425,399.198c-4.395,22.605,1.485,45.747,16.128,63.514
				c14.635,17.758,36.241,27.947,59.264,27.947c15.112,0,29.15-7.509,37.538-20.087l20.07-30.114
				c11.11-16.649,29.687-26.598,49.707-26.598h143.718c20.019,0,38.596,9.95,49.707,26.598l20.07,30.114
				c8.388,12.578,22.426,20.087,37.538,20.087c23.023,0,44.629-10.189,59.264-27.947
				C509.073,444.945,514.953,421.803,510.558,399.198z M110.925,160.802c0-6.332,5.154-11.477,11.477-11.477h62.379
				c6.323,0,11.477,5.146,11.477,11.477v19.644c-0.23-0.094-0.461-0.171-0.683-0.265c-2.586-1.058-5.086-2.295-7.381-3.823
				c-2.449-1.63-4.992-3.072-7.62-4.309c-7.868-3.721-16.478-5.658-25.293-5.658h-0.009h-10.103c-3.243,0-6.477,0.162-9.694,0.427
				c-1.203,0.102-2.389,0.265-3.584,0.401c-1.929,0.222-3.849,0.452-5.76,0.768c-1.553,0.256-3.098,0.555-4.634,0.862
				c-1.417,0.29-2.825,0.606-4.233,0.947c-1.843,0.452-3.678,0.922-5.487,1.451c-0.282,0.085-0.572,0.137-0.853,0.222V160.802z
				 M174.925,230.391c0,16.469-13.397,29.867-29.867,29.867c-16.469,0-29.867-13.397-29.867-29.867
				c0-16.469,13.397-29.867,29.867-29.867C161.527,200.525,174.925,213.922,174.925,230.391z M89.591,300.791
				c-16.469,0-29.867-13.397-29.867-29.867c0-16.469,13.397-29.867,29.867-29.867c16.469,0,29.867,13.397,29.867,29.867
				C119.458,287.394,106.061,300.791,89.591,300.791z M145.058,345.591c-16.469,0-29.867-13.397-29.867-29.867
				s13.397-29.867,29.867-29.867c16.469,0,29.867,13.397,29.867,29.867S161.527,345.591,145.058,345.591z M170.658,270.925
				c0-16.469,13.397-29.867,29.867-29.867c16.469,0,29.867,13.397,29.867,29.867c0,16.469-13.397,29.867-29.867,29.867
				C184.055,300.791,170.658,287.394,170.658,270.925z M255.991,379.725c-23.526,0-42.667-19.14-42.667-42.667
				c0-23.526,19.14-42.667,42.667-42.667c23.526,0,42.667,19.14,42.667,42.667C298.658,360.584,279.518,379.725,255.991,379.725z
				 M435.191,294.391c0,4.71-3.814,8.533-8.533,8.533h-25.6v25.6c0,4.71-3.814,8.533-8.533,8.533h-34.133
				c-4.719,0-8.533-3.823-8.533-8.533v-25.6h-25.6c-4.719,0-8.533-3.823-8.533-8.533v-34.133c0-4.71,3.814-8.533,8.533-8.533h25.6
				v-25.6c0-4.71,3.814-8.533,8.533-8.533h34.133c4.719,0,8.533,3.823,8.533,8.533v25.6h25.6c4.719,0,8.533,3.823,8.533,8.533
				V294.391z"/>
			<path d="M383.991,260.258v-25.6h-17.067v25.6c0,4.71-3.814,8.533-8.533,8.533h-25.6v17.067h25.6c4.719,0,8.533,3.823,8.533,8.533
				v25.6h17.067v-25.6c0-4.71,3.814-8.533,8.533-8.533h25.6v-17.067h-25.6C387.806,268.791,383.991,264.968,383.991,260.258z"/>
		</g>
	</g>
</g>
</svg>
